# xmcd
#
# Track frame offsets:
#	150
#	21475
#	47956
#	71851
#	91356
#	120617
#	148272
#	171313
#	192326
#	214702
#	247330
#	271218
#
# Disc length: 3896 seconds
#
# Revision: 0
# Processed by: cddbd v1.5.2PL0 Copyright (c) Steve Scherf et al.
# Submitted via: EZCDAudioConverter 8.0.2.1
#
DISCID=c40f360c
DTITLE=Lệ Quyên - Vol 05. Khúc Tình Xưa
DYEAR=2010
DGENRE=Asian Pop
TTITLE0=Mưa nửa đêm
TTITLE1=Tình lỡ
TTITLE2=Sầu lẻ bóng
TTITLE3=Buồn
TTITLE4=Đồi thông hai mộ
TTITLE5=Chiếc lá cuối cùng
TTITLE6=Ảo ảnh
TTITLE7=Em về kẻo mưa
TTITLE8=Tình đời
TTITLE9=Hàn Mặc Tử
TTITLE10=Mùa đông của anh
TTITLE11=Ngọc trúc đào
EXTD=
EXTT0=
EXTT1=
EXTT2=
EXTT3=
EXTT4=
EXTT5=
EXTT6=
EXTT7=
EXTT8=
EXTT9=
EXTT10=
EXTT11=
PLAYORDER=
